<?xml version="1.0" encoding="utf-8"?>
<!-- Generator: Adobe Illustrator 25.4.1, SVG Export Plug-In . SVG Version: 6.00 Build 0)  -->
<svg version="1.1" id="Layer_2_00000168092173642942131510000014706750796333201081_"
	 xmlns="http://www.w3.org/2000/svg" xmlns:xlink="http://www.w3.org/1999/xlink" x="0px" y="0px" viewBox="0 0 478.9 80.9"
	 style="enable-background:new 0 0 478.9 80.9;" xml:space="preserve">
<style type="text/css">
	.st0{clip-path:url(#SVGID_00000118387521196340761160000011190646732448690048_);fill:#FFFFFF;}
</style>
<g>
	<defs>
		<rect id="SVGID_1_" x="0" width="478.8" height="80.9"/>
	</defs>
	<clipPath id="SVGID_00000129187135790605517960000012778496533855905695_">
		<use xlink:href="#SVGID_1_"  style="overflow:visible;"/>
	</clipPath>
	<path style="clip-path:url(#SVGID_00000129187135790605517960000012778496533855905695_);fill:#FFFFFF;" d="M-30.2,17.4l-4.1-10.2
		l-2.3,2.9c-2.6-2.3-10.6-8.9-17.7-9.2c-8.4-0.4-14,7.5-14.5,15.2c-0.1,1.1-0.1,2.1-0.1,3.1c-0.1,4.5-0.2,7.3-4.7,10.6
		c-6.1,4.6-13.3-0.1-14.1-0.7c-1.9-1.3-4.9-3.6-6.6-5l2.2-2.4l-10.8-2.4l3.4,10.4l2.4-2.7c1.7,1.4,4.9,3.8,7,5.3
		c2.7,1.9,6.5,3.4,10.5,3.4c2.8,0,5.8-0.8,8.5-2.8c6-4.5,6.1-9,6.3-13.7c0-0.9,0-1.9,0.1-2.9c0.3-4.8,3.7-11.4,10-11.4
		c0.1,0,0.2,0,0.4,0c5.2,0.2,12.3,5.6,15.3,8.3l-2,2.5L-30.2,17.4z"/>
	<path style="clip-path:url(#SVGID_00000129187135790605517960000012778496533855905695_);fill:#FFFFFF;" d="M18.6,17.4L14.5,7.2
		l-2.3,2.9C9.6,7.8,1.6,1.2-5.4,0.9c-8.4-0.4-14,7.5-14.5,15.2c-0.1,1.1-0.1,2.1-0.1,3.1c-0.1,4.5-0.2,7.3-4.7,10.6
		c-6.1,4.6-13.3-0.1-14.1-0.7c-1.9-1.3-4.9-3.6-6.6-5l2.2-2.4l-10.8-2.4l3.5,10.4l2.4-2.7c1.7,1.4,4.9,3.8,7,5.3
		c2.7,1.9,6.5,3.4,10.5,3.4c2.8,0,5.8-0.8,8.5-2.8c6-4.5,6.1-9,6.3-13.7c0-0.9,0-1.9,0.1-2.9c0.3-4.8,3.7-11.4,10-11.4
		c0.1,0,0.2,0,0.3,0c5.2,0.2,12.3,5.6,15.3,8.3l-2,2.5L18.6,17.4z"/>
	<path style="clip-path:url(#SVGID_00000129187135790605517960000012778496533855905695_);fill:#FFFFFF;" d="M67.4,17.4L63.3,7.2
		L61,10.1c-2.6-2.3-10.6-8.9-17.7-9.2c-8.4-0.4-14,7.5-14.5,15.2c-0.1,1.1-0.1,2.1-0.1,3.1c-0.1,4.5-0.2,7.3-4.7,10.6
		c-6.1,4.6-13.3-0.1-14.1-0.7c-1.9-1.3-4.8-3.6-6.6-5l2.2-2.4l-10.8-2.4l3.5,10.4l2.4-2.7c1.7,1.4,4.9,3.8,7,5.3
		c2.7,1.9,6.5,3.4,10.5,3.4c2.8,0,5.8-0.8,8.5-2.8c6-4.5,6.1-9,6.3-13.7c0-0.9,0.1-1.9,0.1-2.9c0.3-4.8,3.7-11.4,10-11.4
		c0.1,0,0.2,0,0.3,0c5.2,0.2,12.3,5.6,15.3,8.3l-2,2.5L67.4,17.4z"/>
	<path style="clip-path:url(#SVGID_00000129187135790605517960000012778496533855905695_);fill:#FFFFFF;" d="M116.2,17.4l-4.1-10.2
		l-2.3,2.9c-2.6-2.3-10.6-8.9-17.7-9.2c-8.4-0.4-14,7.5-14.5,15.2c-0.1,1.1-0.1,2.1-0.1,3.1c-0.1,4.5-0.2,7.3-4.6,10.6
		c-6.1,4.6-13.3-0.1-14.1-0.7c-1.9-1.3-4.8-3.6-6.6-5l2.2-2.4l-10.8-2.4l3.4,10.4l2.4-2.7c1.7,1.4,4.9,3.8,7,5.3
		c2.7,1.9,6.5,3.4,10.5,3.4c2.9,0,5.8-0.8,8.5-2.8c6-4.5,6.1-9,6.3-13.7c0-0.9,0.1-1.9,0.1-2.9c0.4-4.8,3.7-11.4,10-11.4
		c0.1,0,0.2,0,0.4,0c5.2,0.2,12.3,5.6,15.3,8.3l-2,2.5L116.2,17.4z"/>
	<path style="clip-path:url(#SVGID_00000129187135790605517960000012778496533855905695_);fill:#FFFFFF;" d="M165,17.4l-4.1-10.2
		l-2.3,2.9c-2.6-2.3-10.6-8.9-17.7-9.2c-8.4-0.4-14,7.5-14.5,15.2c-0.1,1.1-0.1,2.1-0.1,3.1c-0.1,4.5-0.2,7.3-4.6,10.6
		c-6.1,4.6-13.3-0.1-14.1-0.7c-1.9-1.3-4.9-3.6-6.6-5l2.2-2.4l-10.8-2.4l3.4,10.4l2.4-2.7c1.7,1.4,4.9,3.8,7,5.3
		c2.7,1.9,6.5,3.4,10.5,3.4c2.9,0,5.8-0.8,8.5-2.8c6-4.5,6.1-9,6.3-13.7c0-0.9,0.1-1.9,0.1-2.9c0.4-4.8,3.7-11.4,10-11.4
		c0.1,0,0.2,0,0.4,0c5.2,0.2,12.3,5.6,15.3,8.3l-2,2.5L165,17.4z"/>
	<path style="clip-path:url(#SVGID_00000129187135790605517960000012778496533855905695_);fill:#FFFFFF;" d="M213.8,17.4l-4.1-10.2
		l-2.3,2.9c-2.6-2.3-10.6-8.9-17.7-9.2c-8.4-0.4-14,7.5-14.5,15.2c-0.1,1.1-0.1,2.1-0.1,3.1c-0.1,4.5-0.2,7.3-4.6,10.6
		c-6.1,4.6-13.3-0.1-14.1-0.7c-1.9-1.3-4.9-3.6-6.6-5l2.2-2.4l-10.8-2.4l3.4,10.4l2.4-2.7c1.7,1.4,4.9,3.8,7,5.3
		c2.7,1.9,6.5,3.4,10.5,3.4c2.9,0,5.8-0.8,8.5-2.8c6-4.5,6.1-9,6.3-13.7c0-0.9,0.1-1.9,0.1-2.9c0.4-4.8,3.7-11.4,10-11.4
		c0.1,0,0.2,0,0.4,0c5.2,0.2,12.3,5.6,15.3,8.3l-2,2.5L213.8,17.4z"/>
	<path style="clip-path:url(#SVGID_00000129187135790605517960000012778496533855905695_);fill:#FFFFFF;" d="M262.6,17.4l-4.1-10.2
		l-2.3,2.9c-2.6-2.3-10.6-8.9-17.7-9.2c-8.4-0.4-14,7.5-14.5,15.2c-0.1,1.1-0.1,2.1-0.1,3.1c-0.1,4.5-0.2,7.3-4.6,10.6
		c-6.1,4.6-13.3-0.1-14.1-0.7c-1.9-1.3-4.9-3.6-6.6-5l2.2-2.4l-10.8-2.4l3.4,10.4l2.4-2.7c1.7,1.4,4.9,3.8,7,5.3
		c2.7,1.9,6.5,3.4,10.5,3.4c2.9,0,5.8-0.8,8.5-2.8c6-4.5,6.1-9,6.3-13.7c0-0.9,0-1.9,0.1-2.9c0.4-4.8,3.7-11.4,10-11.4
		c0.1,0,0.2,0,0.4,0c5.2,0.2,12.3,5.6,15.3,8.3l-2,2.5L262.6,17.4z"/>
	<path style="clip-path:url(#SVGID_00000129187135790605517960000012778496533855905695_);fill:#FFFFFF;" d="M308.4,17.4l-4.1-10.2
		l-2.3,2.9c-2.6-2.3-10.6-8.9-17.7-9.2c-8.4-0.4-14,7.5-14.5,15.2c-0.1,1.1-0.1,2.1-0.1,3.1c-0.1,4.5-0.2,7.3-4.6,10.6
		c-6.1,4.6-13.3-0.1-14.1-0.7c-1.9-1.3-4.9-3.6-6.6-5l2.2-2.4l-10.8-2.4l3.5,10.4l2.4-2.7c1.7,1.4,4.9,3.8,7,5.3
		c2.7,1.9,6.5,3.4,10.5,3.4c2.9,0,5.8-0.8,8.5-2.8c6-4.5,6.1-9,6.3-13.7c0-0.9,0-1.9,0.1-2.9c0.4-4.8,3.7-11.4,10-11.4
		c0.1,0,0.2,0,0.4,0c5.2,0.2,12.3,5.6,15.3,8.3l-2,2.5L308.4,17.4z"/>
	<path style="clip-path:url(#SVGID_00000129187135790605517960000012778496533855905695_);fill:#FFFFFF;" d="M355.1,17.4L351,7.2
		l-2.3,2.9c-2.6-2.3-10.6-8.9-17.7-9.2c-8.4-0.4-14,7.5-14.5,15.2c-0.1,1.1-0.1,2.1-0.1,3.1c-0.1,4.5-0.2,7.3-4.6,10.6
		c-6.1,4.6-13.3-0.1-14.1-0.7c-1.9-1.3-4.9-3.6-6.6-5l2.2-2.4l-10.8-2.4l3.5,10.4l2.4-2.7c1.7,1.4,4.9,3.8,7,5.3
		c2.7,1.9,6.5,3.4,10.5,3.4c2.9,0,5.8-0.8,8.5-2.8c6-4.5,6.1-9,6.3-13.7c0-0.9,0-1.9,0.1-2.9c0.4-4.8,3.7-11.4,10-11.4
		c0.1,0,0.2,0,0.4,0c5.2,0.2,12.3,5.6,15.3,8.3l-2,2.5L355.1,17.4z"/>
	<path style="clip-path:url(#SVGID_00000129187135790605517960000012778496533855905695_);fill:#FFFFFF;" d="M401.9,17.4l-4.1-10.2
		l-2.3,2.9c-2.6-2.3-10.6-8.9-17.7-9.2c-8.4-0.4-14,7.5-14.5,15.2c-0.1,1.1-0.1,2.1-0.1,3.1c-0.1,4.5-0.2,7.3-4.6,10.6
		c-6.1,4.6-13.3-0.1-14.1-0.7c-1.9-1.3-4.9-3.6-6.6-5l2.2-2.4l-10.8-2.4l3.5,10.4l2.4-2.7c1.7,1.4,4.9,3.8,7,5.3
		c2.7,1.9,6.5,3.4,10.5,3.4c2.9,0,5.8-0.8,8.5-2.8c6-4.5,6.1-9,6.3-13.7c0-0.9,0-1.9,0.1-2.9c0.4-4.8,3.7-11.4,10-11.4
		c0.1,0,0.2,0,0.4,0c5.2,0.2,12.3,5.6,15.3,8.3l-2,2.5L401.9,17.4z"/>
	<path style="clip-path:url(#SVGID_00000129187135790605517960000012778496533855905695_);fill:#FFFFFF;" d="M-30.2,57.4l-4.1-10.2
		l-2.3,2.9c-2.6-2.3-10.6-8.9-17.7-9.2c-8.4-0.4-14,7.5-14.5,15.2c-0.1,1.1-0.1,2.1-0.1,3.1c-0.1,4.5-0.2,7.3-4.7,10.6
		c-6.1,4.6-13.3-0.1-14.1-0.7c-1.9-1.3-4.9-3.6-6.6-5l2.2-2.4l-10.8-2.4l3.4,10.4l2.4-2.7c1.7,1.4,4.9,3.8,7,5.3
		c2.7,1.9,6.5,3.4,10.5,3.4c2.8,0,5.8-0.8,8.5-2.8c6-4.5,6.1-9,6.3-13.8c0-0.9,0-1.9,0.1-2.9c0.3-4.8,3.7-11.4,10-11.4
		c0.1,0,0.2,0,0.4,0c5.2,0.2,12.3,5.6,15.3,8.3l-2,2.5L-30.2,57.4z"/>
	<path style="clip-path:url(#SVGID_00000129187135790605517960000012778496533855905695_);fill:#FFFFFF;" d="M18.6,57.4l-4.1-10.2
		l-2.3,2.9c-2.6-2.3-10.6-8.9-17.7-9.2c-8.4-0.4-14,7.5-14.5,15.2c-0.1,1.1-0.1,2.1-0.1,3.1c-0.1,4.5-0.2,7.3-4.7,10.6
		c-6.1,4.6-13.3-0.1-14.1-0.7c-1.9-1.3-4.9-3.6-6.6-5l2.2-2.4l-10.8-2.4l3.5,10.4l2.4-2.7c1.7,1.4,4.9,3.8,7,5.3
		c2.7,1.9,6.5,3.4,10.5,3.4c2.8,0,5.8-0.8,8.5-2.8c6-4.5,6.1-9,6.3-13.8c0-0.9,0-1.9,0.1-2.9c0.3-4.8,3.7-11.4,10-11.4
		c0.1,0,0.2,0,0.3,0c5.2,0.2,12.3,5.6,15.3,8.3l-2,2.5L18.6,57.4z"/>
	<path style="clip-path:url(#SVGID_00000129187135790605517960000012778496533855905695_);fill:#FFFFFF;" d="M67.4,57.4l-4.1-10.2
		L61,50.1c-2.6-2.3-10.6-8.9-17.7-9.2c-8.4-0.4-14,7.5-14.5,15.2c-0.1,1.1-0.1,2.1-0.1,3.1c-0.1,4.5-0.2,7.3-4.7,10.6
		c-6.1,4.6-13.3-0.1-14.1-0.7c-1.9-1.3-4.8-3.6-6.6-5l2.2-2.4l-10.8-2.4l3.5,10.4l2.4-2.7c1.7,1.4,4.9,3.8,7,5.3
		c2.7,1.9,6.5,3.4,10.5,3.4c2.8,0,5.8-0.8,8.5-2.8c6-4.5,6.1-9,6.3-13.8c0-0.9,0.1-1.9,0.1-2.9c0.3-4.8,3.7-11.4,10-11.4
		c0.1,0,0.2,0,0.3,0c5.2,0.2,12.3,5.6,15.3,8.3l-2,2.5L67.4,57.4z"/>
	<path style="clip-path:url(#SVGID_00000129187135790605517960000012778496533855905695_);fill:#FFFFFF;" d="M448.8,17.4l-4.1-10.2
		l-2.3,2.9c-2.6-2.3-10.6-8.9-17.7-9.2c-8.4-0.4-14,7.5-14.5,15.2c-0.1,1.1-0.1,2.1-0.1,3.1c-0.1,4.5-0.2,7.3-4.6,10.6
		c-6.1,4.6-13.3-0.1-14.1-0.7c-1.9-1.3-4.8-3.6-6.6-5l2.2-2.4L376,19.4l3.4,10.4l2.4-2.7c1.7,1.4,4.9,3.8,7,5.3
		c2.7,1.9,6.5,3.4,10.5,3.4c2.9,0,5.8-0.8,8.5-2.8c6-4.5,6.1-9,6.3-13.7c0-0.9,0.1-1.9,0.1-2.9c0.4-4.8,3.7-11.4,10-11.4
		c0.1,0,0.2,0,0.4,0c5.2,0.2,12.3,5.6,15.3,8.3l-2,2.5L448.8,17.4z"/>
	<path style="clip-path:url(#SVGID_00000129187135790605517960000012778496533855905695_);fill:#FFFFFF;" d="M497.6,17.4l-4.1-10.2
		l-2.3,2.9c-2.6-2.3-10.6-8.9-17.7-9.2c-8.4-0.4-14,7.5-14.5,15.2c-0.1,1.1-0.1,2.1-0.1,3.1c-0.1,4.5-0.2,7.3-4.6,10.6
		c-6.1,4.6-13.3-0.1-14.1-0.7c-1.9-1.3-4.9-3.6-6.6-5l2.2-2.4l-10.8-2.4l3.4,10.4l2.4-2.7c1.7,1.4,4.9,3.8,7,5.3
		c2.7,1.9,6.5,3.4,10.5,3.4c2.9,0,5.8-0.8,8.5-2.8c6-4.5,6.1-9,6.3-13.7c0-0.9,0-1.9,0.1-2.9c0.4-4.8,3.7-11.4,10-11.4
		c0.1,0,0.2,0,0.4,0c5.2,0.2,12.3,5.6,15.3,8.3l-2,2.5L497.6,17.4z"/>
	<path style="clip-path:url(#SVGID_00000129187135790605517960000012778496533855905695_);fill:#FFFFFF;" d="M546.3,17.4l-4.1-10.2
		l-2.3,2.9c-2.6-2.3-10.6-8.9-17.7-9.2c-8.4-0.4-14,7.5-14.5,15.2c-0.1,1.1-0.1,2.1-0.1,3.1c-0.1,4.5-0.2,7.3-4.6,10.6
		c-6.1,4.6-13.3-0.1-14.1-0.7c-1.9-1.3-4.9-3.6-6.6-5l2.2-2.4l-10.8-2.4l3.4,10.4l2.4-2.7c1.7,1.4,4.9,3.8,7,5.3
		c2.7,1.9,6.5,3.4,10.5,3.4c2.9,0,5.8-0.8,8.5-2.8c6-4.5,6.1-9,6.3-13.7c0-0.9,0.1-1.9,0.1-2.9c0.4-4.8,3.7-11.4,10-11.4
		c0.1,0,0.2,0,0.3,0c5.2,0.2,12.3,5.6,15.3,8.3l-2,2.5L546.3,17.4z"/>
	<path style="clip-path:url(#SVGID_00000129187135790605517960000012778496533855905695_);fill:#FFFFFF;" d="M448.8,57.4l-4.1-10.2
		l-2.3,2.9c-2.6-2.3-10.6-8.9-17.7-9.2c-8.4-0.4-14,7.5-14.5,15.2c-0.1,1.1-0.1,2.1-0.1,3.1c-0.1,4.5-0.2,7.3-4.6,10.6
		c-6.1,4.6-13.3-0.1-14.1-0.7c-1.9-1.3-4.8-3.6-6.6-5l2.2-2.4L376,59.4l3.4,10.4l2.4-2.7c1.7,1.4,4.9,3.8,7,5.3
		c2.7,1.9,6.5,3.4,10.5,3.4c2.9,0,5.8-0.8,8.5-2.8c6-4.5,6.1-9,6.3-13.8c0-0.9,0.1-1.9,0.1-2.9c0.4-4.8,3.7-11.4,10-11.4
		c0.1,0,0.2,0,0.4,0c5.2,0.2,12.3,5.6,15.3,8.3l-2,2.5L448.8,57.4z"/>
	<path style="clip-path:url(#SVGID_00000129187135790605517960000012778496533855905695_);fill:#FFFFFF;" d="M497.6,57.4l-4.1-10.2
		l-2.3,2.9c-2.6-2.3-10.6-8.9-17.7-9.2c-8.4-0.4-14,7.5-14.5,15.2c-0.1,1.1-0.1,2.1-0.1,3.1c-0.1,4.5-0.2,7.3-4.6,10.6
		c-6.1,4.6-13.3-0.1-14.1-0.7c-1.9-1.3-4.9-3.6-6.6-5l2.2-2.4l-10.8-2.4l3.4,10.4l2.4-2.7c1.7,1.4,4.9,3.8,7,5.3
		c2.7,1.9,6.5,3.4,10.5,3.4c2.9,0,5.8-0.8,8.5-2.8c6-4.5,6.1-9,6.3-13.8c0-0.9,0-1.9,0.1-2.9c0.4-4.8,3.7-11.4,10-11.4
		c0.1,0,0.2,0,0.4,0c5.2,0.2,12.3,5.6,15.3,8.3l-2,2.5L497.6,57.4z"/>
	<path style="clip-path:url(#SVGID_00000129187135790605517960000012778496533855905695_);fill:#FFFFFF;" d="M546.3,57.4l-4.1-10.2
		l-2.3,2.9c-2.6-2.3-10.6-8.9-17.7-9.2c-8.4-0.4-14,7.5-14.5,15.2c-0.1,1.1-0.1,2.1-0.1,3.1c-0.1,4.5-0.2,7.3-4.6,10.6
		c-6.1,4.6-13.3-0.1-14.1-0.7c-1.9-1.3-4.9-3.6-6.6-5l2.2-2.4l-10.8-2.4l3.4,10.4l2.4-2.7c1.7,1.4,4.9,3.8,7,5.3
		c2.7,1.9,6.5,3.4,10.5,3.4c2.9,0,5.8-0.8,8.5-2.8c6-4.5,6.1-9,6.3-13.8c0-0.9,0.1-1.9,0.1-2.9c0.4-4.8,3.7-11.4,10-11.4
		c0.1,0,0.2,0,0.3,0c5.2,0.2,12.3,5.6,15.3,8.3l-2,2.5L546.3,57.4z"/>
	<path style="clip-path:url(#SVGID_00000129187135790605517960000012778496533855905695_);fill:#FFFFFF;" d="M116.2,57.4l-4.1-10.2
		l-2.3,2.9c-2.6-2.3-10.6-8.9-17.7-9.2c-8.4-0.4-14,7.5-14.5,15.2c-0.1,1.1-0.1,2.1-0.1,3.1c-0.1,4.5-0.2,7.3-4.6,10.6
		c-6.1,4.6-13.3-0.1-14.1-0.7c-1.9-1.3-4.8-3.6-6.6-5l2.2-2.4l-10.8-2.4l3.4,10.4l2.4-2.7c1.7,1.4,4.9,3.8,7,5.3
		c2.7,1.9,6.5,3.4,10.5,3.4c2.9,0,5.8-0.8,8.5-2.8c6-4.5,6.1-9,6.3-13.8c0-0.9,0.1-1.9,0.1-2.9c0.4-4.8,3.7-11.4,10-11.4
		c0.1,0,0.2,0,0.4,0c5.2,0.2,12.3,5.6,15.3,8.3l-2,2.5L116.2,57.4z"/>
	<path style="clip-path:url(#SVGID_00000129187135790605517960000012778496533855905695_);fill:#FFFFFF;" d="M165,57.4l-4.1-10.2
		l-2.3,2.9c-2.6-2.3-10.6-8.9-17.7-9.2c-8.4-0.4-14,7.5-14.5,15.2c-0.1,1.1-0.1,2.1-0.1,3.1c-0.1,4.5-0.2,7.3-4.6,10.6
		c-6.1,4.6-13.3-0.1-14.1-0.7c-1.9-1.3-4.9-3.6-6.6-5l2.2-2.4l-10.8-2.4l3.4,10.4l2.4-2.7c1.7,1.4,4.9,3.8,7,5.3
		c2.7,1.9,6.5,3.4,10.5,3.4c2.9,0,5.8-0.8,8.5-2.8c6-4.5,6.1-9,6.3-13.8c0-0.9,0.1-1.9,0.1-2.9c0.4-4.8,3.7-11.4,10-11.4
		c0.1,0,0.2,0,0.4,0c5.2,0.2,12.3,5.6,15.3,8.3l-2,2.5L165,57.4z"/>
	<path style="clip-path:url(#SVGID_00000129187135790605517960000012778496533855905695_);fill:#FFFFFF;" d="M213.8,57.4l-4.1-10.2
		l-2.3,2.9c-2.6-2.3-10.6-8.9-17.7-9.2c-8.4-0.4-14,7.5-14.5,15.2c-0.1,1.1-0.1,2.1-0.1,3.1c-0.1,4.5-0.2,7.3-4.6,10.6
		c-6.1,4.6-13.3-0.1-14.1-0.7c-1.9-1.3-4.9-3.6-6.6-5l2.2-2.4l-10.8-2.4l3.4,10.4l2.4-2.7c1.7,1.4,4.9,3.8,7,5.3
		c2.7,1.9,6.5,3.4,10.5,3.4c2.9,0,5.8-0.8,8.5-2.8c6-4.5,6.1-9,6.3-13.8c0-0.9,0.1-1.9,0.1-2.9c0.4-4.8,3.7-11.4,10-11.4
		c0.1,0,0.2,0,0.4,0c5.2,0.2,12.3,5.6,15.3,8.3l-2,2.5L213.8,57.4z"/>
	<path style="clip-path:url(#SVGID_00000129187135790605517960000012778496533855905695_);fill:#FFFFFF;" d="M262.6,57.4l-4.1-10.2
		l-2.3,2.9c-2.6-2.3-10.6-8.9-17.7-9.2c-8.4-0.4-14,7.5-14.5,15.2c-0.1,1.1-0.1,2.1-0.1,3.1c-0.1,4.5-0.2,7.3-4.6,10.6
		c-6.1,4.6-13.3-0.1-14.1-0.7c-1.9-1.3-4.9-3.6-6.6-5l2.2-2.4l-10.8-2.4l3.4,10.4l2.4-2.7c1.7,1.4,4.9,3.8,7,5.3
		c2.7,1.9,6.5,3.4,10.5,3.4c2.9,0,5.8-0.8,8.5-2.8c6-4.5,6.1-9,6.3-13.8c0-0.9,0-1.9,0.1-2.9c0.4-4.8,3.7-11.4,10-11.4
		c0.1,0,0.2,0,0.4,0c5.2,0.2,12.3,5.6,15.3,8.3l-2,2.5L262.6,57.4z"/>
	<path style="clip-path:url(#SVGID_00000129187135790605517960000012778496533855905695_);fill:#FFFFFF;" d="M308.4,57.4l-4.1-10.2
		l-2.3,2.9c-2.6-2.3-10.6-8.9-17.7-9.2c-8.4-0.4-14,7.5-14.5,15.2c-0.1,1.1-0.1,2.1-0.1,3.1c-0.1,4.5-0.2,7.3-4.6,10.6
		c-6.1,4.6-13.3-0.1-14.1-0.7c-1.9-1.3-4.9-3.6-6.6-5l2.2-2.4l-10.8-2.4l3.5,10.4l2.4-2.7c1.7,1.4,4.9,3.8,7,5.3
		c2.7,1.9,6.5,3.4,10.5,3.4c2.9,0,5.8-0.8,8.5-2.8c6-4.5,6.1-9,6.3-13.8c0-0.9,0-1.9,0.1-2.9c0.4-4.8,3.7-11.4,10-11.4
		c0.1,0,0.2,0,0.4,0c5.2,0.2,12.3,5.6,15.3,8.3l-2,2.5L308.4,57.4z"/>
	<path style="clip-path:url(#SVGID_00000129187135790605517960000012778496533855905695_);fill:#FFFFFF;" d="M355.1,57.4L351,47.2
		l-2.3,2.9c-2.6-2.3-10.6-8.9-17.7-9.2c-8.4-0.4-14,7.5-14.5,15.2c-0.1,1.1-0.1,2.1-0.1,3.1c-0.1,4.5-0.2,7.3-4.6,10.6
		c-6.1,4.6-13.3-0.1-14.1-0.7c-1.9-1.3-4.9-3.6-6.6-5l2.2-2.4l-10.8-2.4l3.5,10.4l2.4-2.7c1.7,1.4,4.9,3.8,7,5.3
		c2.7,1.9,6.5,3.4,10.5,3.4c2.9,0,5.8-0.8,8.5-2.8c6-4.5,6.1-9,6.3-13.8c0-0.9,0-1.9,0.1-2.9c0.4-4.8,3.7-11.4,10-11.4
		c0.1,0,0.2,0,0.4,0c5.2,0.2,12.3,5.6,15.3,8.3l-2,2.5L355.1,57.4z"/>
	<path style="clip-path:url(#SVGID_00000129187135790605517960000012778496533855905695_);fill:#FFFFFF;" d="M401.9,57.4l-4.1-10.2
		l-2.3,2.9c-2.6-2.3-10.6-8.9-17.7-9.2c-8.4-0.4-14,7.5-14.5,15.2c-0.1,1.1-0.1,2.1-0.1,3.1c-0.1,4.5-0.2,7.3-4.6,10.6
		c-6.1,4.6-13.3-0.1-14.1-0.7c-1.9-1.3-4.9-3.6-6.6-5l2.2-2.4l-10.8-2.4l3.5,10.4l2.4-2.7c1.7,1.4,4.9,3.8,7,5.3
		c2.7,1.9,6.5,3.4,10.5,3.4c2.9,0,5.8-0.8,8.5-2.8c6-4.5,6.1-9,6.3-13.8c0-0.9,0-1.9,0.1-2.9c0.4-4.8,3.7-11.4,10-11.4
		c0.1,0,0.2,0,0.4,0c5.2,0.2,12.3,5.6,15.3,8.3l-2,2.5L401.9,57.4z"/>
</g>
</svg>
