<?xml version="1.0" encoding="utf-8"?>
<!-- Generator: Adobe Illustrator 25.4.1, SVG Export Plug-In . SVG Version: 6.00 Build 0)  -->
<svg version="1.1" id="Layer_2" xmlns="http://www.w3.org/2000/svg" xmlns:xlink="http://www.w3.org/1999/xlink" x="0px" y="0px"
	 viewBox="0 0 478.93 246" style="enable-background:new 0 0 478.93 246;" xml:space="preserve">
<style type="text/css">
	.st0{clip-path:url(#SVGID_00000101822388456050912580000006546009686695476914_);fill:#30B0D0;}
	.st1{clip-path:url(#SVGID_00000101822388456050912580000006546009686695476914_);}
	.st2{fill:#FFFFFF;}
</style>
<g>
	<defs>
		<rect id="SVGID_1_" x="-3.93" y="-2.02" width="486.78" height="250.04"/>
	</defs>
	<clipPath id="SVGID_00000168093683043012797730000001513909363857584817_">
		<use xlink:href="#SVGID_1_"  style="overflow:visible;"/>
	</clipPath>
	
		<rect x="-3.93" y="-2.02" style="clip-path:url(#SVGID_00000168093683043012797730000001513909363857584817_);fill:#30B0D0;" width="486.78" height="250.04"/>
	<g style="clip-path:url(#SVGID_00000168093683043012797730000001513909363857584817_);">
		<path class="st2" d="M31.89,189.51l-4.1-10.2l-2.32,2.9c-2.59-2.3-10.64-8.92-17.66-9.19c-8.41-0.35-13.97,7.47-14.52,15.18
			c-0.08,1.1-0.11,2.12-0.14,3.11c-0.13,4.53-0.2,7.26-4.65,10.62c-6.14,4.64-13.34-0.14-14.14-0.71c-1.92-1.34-4.85-3.62-6.57-4.98
			l2.17-2.39l-10.8-2.35l3.45,10.43l2.43-2.67c1.71,1.35,4.87,3.82,6.98,5.29c2.74,1.92,6.52,3.45,10.46,3.45
			c2.85,0,5.78-0.8,8.47-2.83c6-4.54,6.13-9.01,6.26-13.75c0.03-0.93,0.05-1.91,0.13-2.93c0.35-4.8,3.66-11.42,9.96-11.42
			c0.12,0,0.23,0,0.35,0.01c5.24,0.2,12.3,5.63,15.28,8.3l-1.97,2.46L31.89,189.51z"/>
		<path class="st2" d="M80.68,189.51l-4.1-10.2l-2.32,2.9c-2.59-2.3-10.64-8.92-17.66-9.19c-8.41-0.35-13.97,7.47-14.52,15.18
			c-0.08,1.1-0.11,2.12-0.14,3.11c-0.13,4.53-0.2,7.26-4.65,10.62c-6.14,4.64-13.34-0.14-14.14-0.71c-1.92-1.34-4.85-3.62-6.57-4.98
			l2.17-2.39l-10.8-2.35l3.45,10.43l2.43-2.67c1.71,1.35,4.87,3.82,6.98,5.29c2.74,1.92,6.52,3.45,10.46,3.45
			c2.85,0,5.78-0.8,8.47-2.83c6-4.54,6.13-9.01,6.26-13.75c0.03-0.93,0.05-1.91,0.13-2.93c0.35-4.8,3.66-11.42,9.96-11.42
			c0.12,0,0.23,0,0.35,0.01c5.24,0.2,12.3,5.63,15.28,8.3l-1.97,2.46L80.68,189.51z"/>
		<path class="st2" d="M129.46,189.51l-4.1-10.2l-2.32,2.9c-2.59-2.3-10.64-8.92-17.66-9.19c-8.41-0.35-13.97,7.47-14.52,15.18
			c-0.08,1.1-0.11,2.12-0.14,3.11c-0.13,4.53-0.2,7.26-4.65,10.62c-6.14,4.64-13.34-0.14-14.14-0.71c-1.92-1.34-4.85-3.62-6.57-4.98
			l2.17-2.39l-10.8-2.35l3.45,10.43l2.43-2.67c1.71,1.35,4.87,3.82,6.98,5.29c2.74,1.92,6.52,3.45,10.46,3.45
			c2.85,0,5.78-0.8,8.47-2.83c6-4.54,6.13-9.01,6.26-13.75c0.03-0.93,0.05-1.91,0.13-2.93c0.35-4.8,3.66-11.42,9.96-11.42
			c0.12,0,0.23,0,0.35,0.01c5.24,0.2,12.3,5.63,15.28,8.3l-1.97,2.46L129.46,189.51z"/>
		<path class="st2" d="M178.25,189.51l-4.1-10.2l-2.32,2.9c-2.59-2.3-10.64-8.92-17.66-9.19c-8.41-0.35-13.97,7.47-14.52,15.18
			c-0.08,1.1-0.11,2.12-0.14,3.11c-0.13,4.53-0.2,7.26-4.65,10.62c-6.14,4.64-13.34-0.14-14.14-0.71c-1.92-1.34-4.85-3.62-6.57-4.98
			l2.17-2.39l-10.8-2.35l3.45,10.43l2.43-2.67c1.71,1.35,4.87,3.82,6.98,5.29c2.74,1.92,6.52,3.45,10.46,3.45
			c2.85,0,5.78-0.8,8.47-2.83c6-4.54,6.13-9.01,6.26-13.75c0.03-0.93,0.05-1.91,0.13-2.93c0.35-4.8,3.66-11.42,9.96-11.42
			c0.12,0,0.23,0,0.35,0.01c5.24,0.2,12.3,5.63,15.28,8.3l-1.97,2.46L178.25,189.51z"/>
		<path class="st2" d="M227.04,189.51l-4.1-10.2l-2.32,2.9c-2.59-2.3-10.64-8.92-17.66-9.19c-8.41-0.35-13.97,7.47-14.52,15.18
			c-0.08,1.1-0.11,2.12-0.14,3.11c-0.13,4.53-0.2,7.26-4.65,10.62c-6.14,4.64-13.34-0.14-14.14-0.71c-1.92-1.34-4.85-3.62-6.57-4.98
			l2.17-2.39l-10.8-2.35l3.45,10.43l2.43-2.67c1.71,1.35,4.87,3.82,6.98,5.29c2.74,1.92,6.52,3.45,10.46,3.45
			c2.85,0,5.78-0.8,8.47-2.83c6-4.54,6.13-9.01,6.26-13.75c0.03-0.93,0.05-1.91,0.13-2.93c0.35-4.8,3.66-11.42,9.96-11.42
			c0.12,0,0.23,0,0.35,0.01c5.24,0.2,12.3,5.63,15.28,8.3l-1.97,2.46L227.04,189.51z"/>
		<path class="st2" d="M275.83,189.51l-4.1-10.2l-2.32,2.9c-2.59-2.3-10.64-8.92-17.66-9.19c-8.41-0.35-13.97,7.47-14.52,15.18
			c-0.08,1.1-0.11,2.12-0.14,3.11c-0.13,4.53-0.2,7.26-4.65,10.62c-6.14,4.64-13.34-0.14-14.14-0.71c-1.92-1.34-4.85-3.62-6.57-4.98
			l2.17-2.39l-10.8-2.35l3.45,10.43l2.43-2.67c1.71,1.35,4.87,3.82,6.98,5.29c2.74,1.92,6.52,3.45,10.46,3.45
			c2.85,0,5.78-0.8,8.47-2.83c6-4.54,6.13-9.01,6.26-13.75c0.03-0.93,0.05-1.91,0.13-2.93c0.35-4.8,3.66-11.42,9.96-11.42
			c0.12,0,0.23,0,0.35,0.01c5.24,0.2,12.3,5.63,15.28,8.3l-1.97,2.46L275.83,189.51z"/>
		<path class="st2" d="M324.61,189.51l-4.1-10.2l-2.32,2.9c-2.59-2.3-10.64-8.92-17.66-9.19c-8.41-0.35-13.97,7.47-14.52,15.18
			c-0.08,1.1-0.11,2.12-0.14,3.11c-0.13,4.53-0.2,7.26-4.65,10.62c-6.14,4.64-13.34-0.14-14.14-0.71c-1.92-1.34-4.85-3.62-6.57-4.98
			l2.17-2.39l-10.8-2.35l3.45,10.43l2.43-2.67c1.71,1.35,4.87,3.82,6.98,5.29c2.74,1.92,6.52,3.45,10.46,3.45
			c2.85,0,5.78-0.8,8.47-2.83c6-4.54,6.13-9.01,6.26-13.75c0.03-0.93,0.05-1.91,0.13-2.93c0.35-4.8,3.66-11.42,9.96-11.42
			c0.12,0,0.23,0,0.35,0.01c5.24,0.2,12.3,5.63,15.28,8.3l-1.97,2.46L324.61,189.51z"/>
		<path class="st2" d="M373.4,189.51l-4.1-10.2l-2.32,2.9c-2.59-2.3-10.64-8.92-17.66-9.19c-8.41-0.35-13.97,7.47-14.52,15.18
			c-0.08,1.1-0.11,2.12-0.14,3.11c-0.13,4.53-0.2,7.26-4.65,10.62c-6.14,4.64-13.34-0.14-14.14-0.71c-1.92-1.34-4.85-3.62-6.57-4.98
			l2.17-2.39l-10.8-2.35l3.45,10.43l2.43-2.67c1.71,1.35,4.87,3.82,6.98,5.29c2.74,1.92,6.52,3.45,10.46,3.45
			c2.85,0,5.78-0.8,8.47-2.83c6-4.54,6.13-9.01,6.26-13.75c0.03-0.93,0.05-1.91,0.13-2.93c0.35-4.8,3.66-11.42,9.96-11.42
			c0.12,0,0.23,0,0.35,0.01c5.24,0.2,12.3,5.63,15.28,8.3l-1.97,2.46L373.4,189.51z"/>
		<path class="st2" d="M422.19,189.51l-4.1-10.2l-2.32,2.9c-2.59-2.3-10.64-8.92-17.66-9.19c-8.41-0.35-13.97,7.47-14.52,15.18
			c-0.08,1.1-0.11,2.12-0.14,3.11c-0.13,4.53-0.2,7.26-4.65,10.62c-6.14,4.64-13.34-0.14-14.14-0.71c-1.92-1.34-4.85-3.62-6.57-4.98
			l2.17-2.39l-10.8-2.35l3.45,10.43l2.43-2.67c1.71,1.35,4.87,3.82,6.98,5.29c2.74,1.92,6.52,3.45,10.46,3.45
			c2.85,0,5.78-0.8,8.47-2.83c6-4.54,6.13-9.01,6.26-13.75c0.03-0.93,0.05-1.91,0.13-2.93c0.35-4.8,3.66-11.42,9.96-11.42
			c0.12,0,0.23,0,0.35,0.01c5.24,0.2,12.3,5.63,15.28,8.3l-1.97,2.46L422.19,189.51z"/>
		<path class="st2" d="M470.98,189.51l-4.1-10.2l-2.32,2.9c-2.59-2.3-10.64-8.92-17.66-9.19c-8.41-0.35-13.97,7.47-14.52,15.18
			c-0.08,1.1-0.11,2.12-0.14,3.11c-0.13,4.53-0.2,7.26-4.65,10.62c-6.14,4.64-13.34-0.14-14.14-0.71c-1.92-1.34-4.85-3.62-6.57-4.98
			l2.17-2.39l-10.8-2.35l3.45,10.43l2.43-2.67c1.71,1.35,4.87,3.82,6.98,5.29c2.74,1.92,6.52,3.45,10.46,3.45
			c2.85,0,5.78-0.8,8.47-2.83c6-4.54,6.13-9.01,6.26-13.75c0.03-0.93,0.05-1.91,0.13-2.93c0.35-4.8,3.66-11.42,9.96-11.42
			c0.12,0,0.23,0,0.35,0.01c5.24,0.2,12.3,5.63,15.28,8.3l-1.97,2.46L470.98,189.51z"/>
		<path class="st2" d="M519.76,189.51l-4.1-10.2l-2.32,2.9c-2.59-2.3-10.64-8.92-17.66-9.19c-8.41-0.35-13.97,7.47-14.52,15.18
			c-0.08,1.1-0.11,2.12-0.14,3.11c-0.13,4.53-0.2,7.26-4.65,10.62c-6.14,4.64-13.34-0.14-14.14-0.71c-1.92-1.34-4.85-3.62-6.57-4.98
			l2.17-2.39l-10.8-2.35l3.45,10.43l2.43-2.67c1.71,1.35,4.87,3.82,6.98,5.29c2.74,1.92,6.52,3.45,10.46,3.45
			c2.85,0,5.78-0.8,8.47-2.83c6-4.54,6.13-9.01,6.26-13.75c0.03-0.93,0.05-1.91,0.13-2.93c0.35-4.8,3.66-11.42,9.96-11.42
			c0.12,0,0.23,0,0.35,0.01c5.24,0.2,12.3,5.63,15.28,8.3l-1.97,2.46L519.76,189.51z"/>
		<path class="st2" d="M31.89,229.51l-4.1-10.2l-2.32,2.9c-2.59-2.3-10.64-8.92-17.66-9.19c-8.41-0.35-13.97,7.47-14.52,15.18
			c-0.08,1.1-0.11,2.12-0.14,3.11c-0.13,4.53-0.2,7.26-4.65,10.62c-6.14,4.64-13.34-0.14-14.14-0.71c-1.92-1.34-4.85-3.62-6.57-4.98
			l2.17-2.39l-10.8-2.35l3.45,10.43l2.43-2.67c1.71,1.35,4.87,3.82,6.98,5.29c2.74,1.92,6.52,3.45,10.46,3.45
			c2.85,0,5.78-0.8,8.47-2.83c6-4.54,6.13-9.01,6.26-13.75c0.03-0.93,0.05-1.91,0.13-2.93c0.35-4.8,3.66-11.42,9.96-11.42
			c0.12,0,0.23,0,0.35,0.01c5.24,0.2,12.3,5.63,15.28,8.3l-1.97,2.46L31.89,229.51z"/>
		<path class="st2" d="M80.68,229.51l-4.1-10.2l-2.32,2.9c-2.59-2.3-10.64-8.92-17.66-9.19c-8.41-0.35-13.97,7.47-14.52,15.18
			c-0.08,1.1-0.11,2.12-0.14,3.11c-0.13,4.53-0.2,7.26-4.65,10.62c-6.14,4.64-13.34-0.14-14.14-0.71c-1.92-1.34-4.85-3.62-6.57-4.98
			l2.17-2.39l-10.8-2.35l3.45,10.43l2.43-2.67c1.71,1.35,4.87,3.82,6.98,5.29c2.74,1.92,6.52,3.45,10.46,3.45
			c2.85,0,5.78-0.8,8.47-2.83c6-4.54,6.13-9.01,6.26-13.75c0.03-0.93,0.05-1.91,0.13-2.93c0.35-4.8,3.66-11.42,9.96-11.42
			c0.12,0,0.23,0,0.35,0.01c5.24,0.2,12.3,5.63,15.28,8.3l-1.97,2.46L80.68,229.51z"/>
		<path class="st2" d="M129.46,229.51l-4.1-10.2l-2.32,2.9c-2.59-2.3-10.64-8.92-17.66-9.19c-8.41-0.35-13.97,7.47-14.52,15.18
			c-0.08,1.1-0.11,2.12-0.14,3.11c-0.13,4.53-0.2,7.26-4.65,10.62c-6.14,4.64-13.34-0.14-14.14-0.71c-1.92-1.34-4.85-3.62-6.57-4.98
			l2.17-2.39l-10.8-2.35l3.45,10.43l2.43-2.67c1.71,1.35,4.87,3.82,6.98,5.29c2.74,1.92,6.52,3.45,10.46,3.45
			c2.85,0,5.78-0.8,8.47-2.83c6-4.54,6.13-9.01,6.26-13.75c0.03-0.93,0.05-1.91,0.13-2.93c0.35-4.8,3.66-11.42,9.96-11.42
			c0.12,0,0.23,0,0.35,0.01c5.24,0.2,12.3,5.63,15.28,8.3l-1.97,2.46L129.46,229.51z"/>
		<path class="st2" d="M178.25,229.51l-4.1-10.2l-2.32,2.9c-2.59-2.3-10.64-8.92-17.66-9.19c-8.41-0.35-13.97,7.47-14.52,15.18
			c-0.08,1.1-0.11,2.12-0.14,3.11c-0.13,4.53-0.2,7.26-4.65,10.62c-6.14,4.64-13.34-0.14-14.14-0.71c-1.92-1.34-4.85-3.62-6.57-4.98
			l2.17-2.39l-10.8-2.35l3.45,10.43l2.43-2.67c1.71,1.35,4.87,3.82,6.98,5.29c2.74,1.92,6.52,3.45,10.46,3.45
			c2.85,0,5.78-0.8,8.47-2.83c6-4.54,6.13-9.01,6.26-13.75c0.03-0.93,0.05-1.91,0.13-2.93c0.35-4.8,3.66-11.42,9.96-11.42
			c0.12,0,0.23,0,0.35,0.01c5.24,0.2,12.3,5.63,15.28,8.3l-1.97,2.46L178.25,229.51z"/>
		<path class="st2" d="M227.04,229.51l-4.1-10.2l-2.32,2.9c-2.59-2.3-10.64-8.92-17.66-9.19c-8.41-0.35-13.97,7.47-14.52,15.18
			c-0.08,1.1-0.11,2.12-0.14,3.11c-0.13,4.53-0.2,7.26-4.65,10.62c-6.14,4.64-13.34-0.14-14.14-0.71c-1.92-1.34-4.85-3.62-6.57-4.98
			l2.17-2.39l-10.8-2.35l3.45,10.43l2.43-2.67c1.71,1.35,4.87,3.82,6.98,5.29c2.74,1.92,6.52,3.45,10.46,3.45
			c2.85,0,5.78-0.8,8.47-2.83c6-4.54,6.13-9.01,6.26-13.75c0.03-0.93,0.05-1.91,0.13-2.93c0.35-4.8,3.66-11.42,9.96-11.42
			c0.12,0,0.23,0,0.35,0.01c5.24,0.2,12.3,5.63,15.28,8.3l-1.97,2.46L227.04,229.51z"/>
		<path class="st2" d="M275.83,229.51l-4.1-10.2l-2.32,2.9c-2.59-2.3-10.64-8.92-17.66-9.19c-8.41-0.35-13.97,7.47-14.52,15.18
			c-0.08,1.1-0.11,2.12-0.14,3.11c-0.13,4.53-0.2,7.26-4.65,10.62c-6.14,4.64-13.34-0.14-14.14-0.71c-1.92-1.34-4.85-3.62-6.57-4.98
			l2.17-2.39l-10.8-2.35l3.45,10.43l2.43-2.67c1.71,1.35,4.87,3.82,6.98,5.29c2.74,1.92,6.52,3.45,10.46,3.45
			c2.85,0,5.78-0.8,8.47-2.83c6-4.54,6.13-9.01,6.26-13.75c0.03-0.93,0.05-1.91,0.13-2.93c0.35-4.8,3.66-11.42,9.96-11.42
			c0.12,0,0.23,0,0.35,0.01c5.24,0.2,12.3,5.63,15.28,8.3l-1.97,2.46L275.83,229.51z"/>
		<path class="st2" d="M324.61,229.51l-4.1-10.2l-2.32,2.9c-2.59-2.3-10.64-8.92-17.66-9.19c-8.41-0.35-13.97,7.47-14.52,15.18
			c-0.08,1.1-0.11,2.12-0.14,3.11c-0.13,4.53-0.2,7.26-4.65,10.62c-6.14,4.64-13.34-0.14-14.14-0.71c-1.92-1.34-4.85-3.62-6.57-4.98
			l2.17-2.39l-10.8-2.35l3.45,10.43l2.43-2.67c1.71,1.35,4.87,3.82,6.98,5.29c2.74,1.92,6.52,3.45,10.46,3.45
			c2.85,0,5.78-0.8,8.47-2.83c6-4.54,6.13-9.01,6.26-13.75c0.03-0.93,0.05-1.91,0.13-2.93c0.35-4.8,3.66-11.42,9.96-11.42
			c0.12,0,0.23,0,0.35,0.01c5.24,0.2,12.3,5.63,15.28,8.3l-1.97,2.46L324.61,229.51z"/>
		<path class="st2" d="M373.4,229.51l-4.1-10.2l-2.32,2.9c-2.59-2.3-10.64-8.92-17.66-9.19c-8.41-0.35-13.97,7.47-14.52,15.18
			c-0.08,1.1-0.11,2.12-0.14,3.11c-0.13,4.53-0.2,7.26-4.65,10.62c-6.14,4.64-13.34-0.14-14.14-0.71c-1.92-1.34-4.85-3.62-6.57-4.98
			l2.17-2.39l-10.8-2.35l3.45,10.43l2.43-2.67c1.71,1.35,4.87,3.82,6.98,5.29c2.74,1.92,6.52,3.45,10.46,3.45
			c2.85,0,5.78-0.8,8.47-2.83c6-4.54,6.13-9.01,6.26-13.75c0.03-0.93,0.05-1.91,0.13-2.93c0.35-4.8,3.66-11.42,9.96-11.42
			c0.12,0,0.23,0,0.35,0.01c5.24,0.2,12.3,5.63,15.28,8.3l-1.97,2.46L373.4,229.51z"/>
		<path class="st2" d="M422.19,229.51l-4.1-10.2l-2.32,2.9c-2.59-2.3-10.64-8.92-17.66-9.19c-8.41-0.35-13.97,7.47-14.52,15.18
			c-0.08,1.1-0.11,2.12-0.14,3.11c-0.13,4.53-0.2,7.26-4.65,10.62c-6.14,4.64-13.34-0.14-14.14-0.71c-1.92-1.34-4.85-3.62-6.57-4.98
			l2.17-2.39l-10.8-2.35l3.45,10.43l2.43-2.67c1.71,1.35,4.87,3.82,6.98,5.29c2.74,1.92,6.52,3.45,10.46,3.45
			c2.85,0,5.78-0.8,8.47-2.83c6-4.54,6.13-9.01,6.26-13.75c0.03-0.93,0.05-1.91,0.13-2.93c0.35-4.8,3.66-11.42,9.96-11.42
			c0.12,0,0.23,0,0.35,0.01c5.24,0.2,12.3,5.63,15.28,8.3l-1.97,2.46L422.19,229.51z"/>
		<path class="st2" d="M470.98,229.51l-4.1-10.2l-2.32,2.9c-2.59-2.3-10.64-8.92-17.66-9.19c-8.41-0.35-13.97,7.47-14.52,15.18
			c-0.08,1.1-0.11,2.12-0.14,3.11c-0.13,4.53-0.2,7.26-4.65,10.62c-6.14,4.64-13.34-0.14-14.14-0.71c-1.92-1.34-4.85-3.62-6.57-4.98
			l2.17-2.39l-10.8-2.35l3.45,10.43l2.43-2.67c1.71,1.35,4.87,3.82,6.98,5.29c2.74,1.92,6.52,3.45,10.46,3.45
			c2.85,0,5.78-0.8,8.47-2.83c6-4.54,6.13-9.01,6.26-13.75c0.03-0.93,0.05-1.91,0.13-2.93c0.35-4.8,3.66-11.42,9.96-11.42
			c0.12,0,0.23,0,0.35,0.01c5.24,0.2,12.3,5.63,15.28,8.3l-1.97,2.46L470.98,229.51z"/>
		<path class="st2" d="M519.76,229.51l-4.1-10.2l-2.32,2.9c-2.59-2.3-10.64-8.92-17.66-9.19c-8.41-0.35-13.97,7.47-14.52,15.18
			c-0.08,1.1-0.11,2.12-0.14,3.11c-0.13,4.53-0.2,7.26-4.65,10.62c-6.14,4.64-13.34-0.14-14.14-0.71c-1.92-1.34-4.85-3.62-6.57-4.98
			l2.17-2.39l-10.8-2.35l3.45,10.43l2.43-2.67c1.71,1.35,4.87,3.82,6.98,5.29c2.74,1.92,6.52,3.45,10.46,3.45
			c2.85,0,5.78-0.8,8.47-2.83c6-4.54,6.13-9.01,6.26-13.75c0.03-0.93,0.05-1.91,0.13-2.93c0.35-4.8,3.66-11.42,9.96-11.42
			c0.12,0,0.23,0,0.35,0.01c5.24,0.2,12.3,5.63,15.28,8.3l-1.97,2.46L519.76,229.51z"/>
	</g>
	<g style="clip-path:url(#SVGID_00000168093683043012797730000001513909363857584817_);">
		<path class="st2" d="M348.94,92.91c-5.11-2.65-15.76-2.72-18.85,6.61c-3.09,9.33,1.03,18.37,8.6,18.37c7.57,0,8.82,0,8.82,0
			s0.66,5.22-5.33,5.22c-5.99,0-7.13,0.04-7.13,0.04v7.13c0,0,7.02,0,11.54,0s9.22-2.28,9.22-9.04c0-6.76,0-16.13,0-17.85
			S354.05,95.56,348.94,92.91z M347.4,110.82c-4.78,0.42-9.22,0.16-9.7-4.32c-0.48-4.48,2.17-7.68,5.47-7.24
			c3.31,0.44,4.22,3.97,4.22,5.36C347.4,106.03,347.4,110.82,347.4,110.82z M314.33,92.82h8.6c0,0,0,15.89,0,19.12
			s-1.36,6.5-5.33,6.5c-3.97,0-4.52,0-5.4,0c-0.88,0-4.04-0.46-5.16-3.23c0,0-1.47,3.23-6.7,3.23c-5.24,0-6.5,0.11-8.93-2.87
			c0,0-0.37,2.72-5.44,2.72c-5.07,0-12.69,0-12.69,0s-3.31,19.16-19.89,18.55c-11.53-0.42-19.27-6.32-22.93-9.89l-2.24,3.31
			l-6.47-12.34l14.58,0.33l-1.87,2.77c2.76,2.02,8.85,6.38,11.37,7.39c3.31,1.32,11.08,2.65,16.31-2.53
			c5.24-5.18,4.19-15.04,4.19-15.04s11.33,0,13.94,0c2.61,0,2.98-1.07,2.98-3.53s0-9.92,0-9.92h8.93c0,0,0,8.16,0,9.66
			c0,1.51,0.44,4.15,3.05,4.19c2.61,0.04,3.82-0.51,3.82-3.86c0-3.34,0-9.88,0-9.88h8.41c0,0,0,7.46,0,9.11s0.29,4.78,2.94,4.81
			c2.65,0.04,4.19-0.88,4.19-3.78C314.59,104.74,314.33,92.82,314.33,92.82z M228.18,101.27c2.36,0.94,7.84,4.82,10.8,6.97
			l-2.15,2.86l14.55,1.06l-5.84-12.65l-2.23,2.97c-3.75-3.58-11.4-9.23-22.67-9.64c-16.59-0.61-19.89,18.55-19.89,18.55
			s-2.47,0-5.53,0c0,0,0,0,0,0c-0.68,0.02-4.37,0.11-6.71,0.11c-2.59,0-3.19-2.18-3.19-4.11s0-14.23,0-14.23h-7.57
			c0,0,0,11.17,0,14.47c0,3.31-1.54,3.78-2.42,3.78c-0.88,0-4.85,0-7.42,0c-2.57,0-3.49-2.83-3.56-5.69
			c-0.07-2.87,0.18-11.79-10.8-13.7c-6.87-1.19-12.84,0.61-16.35,2.13V77.23h-8.5c0,0,0,28.08,0,30.91c0,2.84-2.31,2.85-3.61,2.85
			c-1.3,0-1.96,0-1.96,0v7.46c0,0,4.04,0,7.02,0c2.98,0,4.19-1.84,4.19-1.84c1.29,1.21,3.34,1.89,5.11,1.89c1.76,0,1.82,0,13.23,0
			c11.41,0,10.55-3.77,10.55-3.77c0.91,3.69,4.96,4.12,6.39,4.12c1.43,0,0.8,0,8.35,0c7.55,0,6.85-3.49,6.85-3.49
			c0.51,2.06,2.61,3.49,5.33,3.49c2.72,0,4.71,0,4.71,0c3.78,0,12.85,0,12.85,0s-1.05-9.86,4.19-15.04
			C217.11,98.62,224.88,99.94,228.18,101.27z M156.18,107.23c-0.22,4-3.86,4.16-7.05,4.16s-11.94,0-11.94,0v-9.19
			c2.04-1.3,5.07-2.59,9.24-2.8C155.24,98.96,156.4,103.24,156.18,107.23z M173.2,123.48h7.09v7.09h-7.09V123.48z M182.24,123.48
			h7.09v7.09h-7.09V123.48z"/>
	</g>
</g>
</svg>
