<?xml version="1.0" encoding="utf-8"?>
<!-- Generator: Adobe Illustrator 25.4.1, SVG Export Plug-In . SVG Version: 6.00 Build 0)  -->
<svg version="1.1" id="Layer_2_00000168092173642942131510000014706750796333201081_"
	 xmlns="http://www.w3.org/2000/svg" xmlns:xlink="http://www.w3.org/1999/xlink" x="0px" y="0px" viewBox="0 0 478.9 160.5"
	 style="enable-background:new 0 0 478.9 160.5;" xml:space="preserve">
<style type="text/css">
	.st0{fill:#30AFCF;}
	.st1{clip-path:url(#SVGID_00000183207894761547702990000004425157269864630420_);fill:#FFFFFF;}
	.st2{clip-path:url(#SVGID_00000146494548498458513750000006470284902337685929_);fill:#FFFFFF;}
	.st3{clip-path:url(#SVGID_00000145044438373192411040000012365337317668030870_);fill:#FFFFFF;}
	.st4{clip-path:url(#SVGID_00000049926329633777005590000014531319264086671266_);fill:#FFFFFF;}
	.st5{clip-path:url(#SVGID_00000091736871276493436790000007913150284748696451_);fill:#FFFFFF;}
	.st6{clip-path:url(#SVGID_00000160908824255311499510000011657722253726725504_);fill:#FFFFFF;}
	.st7{clip-path:url(#SVGID_00000150090819856861524650000012150411744576328359_);fill:#FFFFFF;}
	.st8{clip-path:url(#SVGID_00000129894810037286554390000017941610978987765899_);fill:#FFFFFF;}
	.st9{clip-path:url(#SVGID_00000146477567568997168260000014671503092518145941_);fill:#FFFFFF;}
	.st10{clip-path:url(#SVGID_00000053518126059414723330000001139710808997696681_);fill:#FFFFFF;}
	.st11{clip-path:url(#SVGID_00000126321714895069945690000002235983051248259509_);fill:#FFFFFF;}
	.st12{clip-path:url(#SVGID_00000034793047170961750530000011158476347020916388_);fill:#FFFFFF;}
	.st13{clip-path:url(#SVGID_00000080895105075176192070000013963401936414880163_);fill:#FFFFFF;}
	.st14{clip-path:url(#SVGID_00000123429708369017774720000012930265283516839835_);fill:#FFFFFF;}
	.st15{clip-path:url(#SVGID_00000128476603946415833250000012154067788293345421_);fill:#FFFFFF;}
	.st16{clip-path:url(#SVGID_00000153686636440721592950000001389092271647997601_);fill:#FFFFFF;}
	.st17{clip-path:url(#SVGID_00000141439995878438863650000015114994879727675828_);fill:#FFFFFF;}
	.st18{clip-path:url(#SVGID_00000017485528520576881140000016389041140133503660_);fill:#FFFFFF;}
	.st19{clip-path:url(#SVGID_00000008841959034775068010000008417804258445383598_);fill:#FFFFFF;}
	.st20{clip-path:url(#SVGID_00000053517673546136484290000000125937302896277120_);fill:#FFFFFF;}
	.st21{clip-path:url(#SVGID_00000031920457593251927720000008441091757770290088_);fill:#FFFFFF;}
	.st22{clip-path:url(#SVGID_00000031898956411445977460000010134452937760617903_);fill:#FFFFFF;}
	.st23{clip-path:url(#SVGID_00000065788347150072966120000017569917519484235189_);fill:#FFFFFF;}
	.st24{clip-path:url(#SVGID_00000113346657730009856000000008798398472320585917_);fill:#FFFFFF;}
	.st25{clip-path:url(#SVGID_00000018209815067332565160000012536761741520970123_);fill:#FFFFFF;}
	.st26{clip-path:url(#SVGID_00000147200822276038397700000003253639623598872236_);fill:#FFFFFF;}
</style>
<rect class="st0" width="478.9" height="160.5"/>
<g>
	<g>
		<defs>
			<rect id="SVGID_1_" y="79.6" width="478.8" height="80.9"/>
		</defs>
		<clipPath id="SVGID_00000148658087792776105060000010907843470020670640_">
			<use xlink:href="#SVGID_1_"  style="overflow:visible;"/>
		</clipPath>
		<path style="clip-path:url(#SVGID_00000148658087792776105060000010907843470020670640_);fill:#FFFFFF;" d="M-30.2,97l-4.1-10.2
			l-2.3,2.9c-2.6-2.3-10.6-8.9-17.7-9.2c-8.4-0.4-14,7.5-14.5,15.2c-0.1,1.1-0.1,2.1-0.1,3.1c-0.1,4.5-0.2,7.3-4.7,10.6
			c-6.1,4.6-13.3-0.1-14.1-0.7c-1.9-1.3-4.9-3.6-6.6-5l2.2-2.4l-10.8-2.4l3.4,10.4l2.4-2.7c1.7,1.4,4.9,3.8,7,5.3
			c2.7,1.9,6.5,3.4,10.5,3.4c2.8,0,5.8-0.8,8.5-2.8c6-4.5,6.1-9,6.3-13.7c0-0.9,0-1.9,0.1-2.9c0.3-4.8,3.7-11.4,10-11.4
			c0.1,0,0.2,0,0.4,0c5.2,0.2,12.3,5.6,15.3,8.3l-2,2.5L-30.2,97z"/>
	</g>
	<g>
		<defs>
			<rect id="SVGID_00000112611885893815942860000005769282106427451052_" y="79.6" width="478.8" height="80.9"/>
		</defs>
		<clipPath id="SVGID_00000124859306611451730150000000222117753463206326_">
			<use xlink:href="#SVGID_00000112611885893815942860000005769282106427451052_"  style="overflow:visible;"/>
		</clipPath>
		<path style="clip-path:url(#SVGID_00000124859306611451730150000000222117753463206326_);fill:#FFFFFF;" d="M18.6,97l-4.1-10.2
			l-2.3,2.9c-2.6-2.3-10.6-8.9-17.6-9.2c-8.4-0.4-14,7.5-14.5,15.2c-0.1,1.1-0.1,2.1-0.1,3.1c-0.1,4.5-0.2,7.3-4.7,10.6
			c-6.1,4.6-13.3-0.1-14.1-0.7c-1.9-1.3-4.9-3.6-6.6-5l2.2-2.4L-54,98.9l3.5,10.4l2.4-2.7c1.7,1.4,4.9,3.8,7,5.3
			c2.7,1.9,6.5,3.4,10.5,3.4c2.8,0,5.8-0.8,8.5-2.8c6-4.5,6.1-9,6.3-13.7c0-0.9,0-1.9,0.1-2.9c0.3-4.8,3.7-11.4,10-11.4
			c0.1,0,0.2,0,0.3,0c5.2,0.2,12.3,5.6,15.3,8.3l-2,2.5L18.6,97z"/>
	</g>
	<g>
		<defs>
			<rect id="SVGID_00000103952835016624063240000007324329521644428218_" y="79.6" width="478.8" height="80.9"/>
		</defs>
		<clipPath id="SVGID_00000170991762487213805430000018303467915804494473_">
			<use xlink:href="#SVGID_00000103952835016624063240000007324329521644428218_"  style="overflow:visible;"/>
		</clipPath>
		<path style="clip-path:url(#SVGID_00000170991762487213805430000018303467915804494473_);fill:#FFFFFF;" d="M67.4,97l-4.1-10.2
			L61,89.7c-2.6-2.3-10.6-8.9-17.7-9.2c-8.4-0.4-14,7.5-14.5,15.2c-0.1,1.1-0.1,2.1-0.1,3.1c-0.1,4.5-0.2,7.3-4.7,10.6
			c-6.1,4.6-13.3-0.1-14.1-0.7c-1.9-1.3-4.8-3.6-6.6-5l2.2-2.4l-10.8-2.4l3.5,10.4l2.4-2.7c1.7,1.4,4.9,3.8,7,5.3
			c2.7,1.9,6.5,3.4,10.5,3.4c2.8,0,5.8-0.8,8.5-2.8c6-4.5,6.1-9,6.3-13.7c0-0.9,0.1-1.9,0.1-2.9c0.3-4.8,3.7-11.4,10-11.4
			c0.1,0,0.2,0,0.3,0c5.2,0.2,12.3,5.6,15.3,8.3l-2,2.5L67.4,97z"/>
	</g>
	<g>
		<defs>
			<rect id="SVGID_00000099653288748550201820000012314414604830684036_" y="79.6" width="478.8" height="80.9"/>
		</defs>
		<clipPath id="SVGID_00000175308066103195058660000015610780132736048815_">
			<use xlink:href="#SVGID_00000099653288748550201820000012314414604830684036_"  style="overflow:visible;"/>
		</clipPath>
		<path style="clip-path:url(#SVGID_00000175308066103195058660000015610780132736048815_);fill:#FFFFFF;" d="M116.2,97l-4.1-10.2
			l-2.3,2.9c-2.6-2.3-10.6-8.9-17.7-9.2c-8.4-0.4-14,7.5-14.5,15.2c-0.1,1.1-0.1,2.1-0.1,3.1c-0.1,4.5-0.2,7.3-4.6,10.6
			c-6.1,4.6-13.3-0.1-14.1-0.7c-1.9-1.3-4.8-3.6-6.6-5l2.2-2.4l-10.8-2.4l3.4,10.4l2.4-2.7c1.7,1.4,4.9,3.8,7,5.3
			c2.7,1.9,6.5,3.4,10.5,3.4c2.9,0,5.8-0.8,8.5-2.8c6-4.5,6.1-9,6.3-13.7c0-0.9,0.1-1.9,0.1-2.9c0.4-4.8,3.7-11.4,10-11.4
			c0.1,0,0.2,0,0.4,0c5.2,0.2,12.3,5.6,15.3,8.3l-2,2.5L116.2,97z"/>
	</g>
	<g>
		<defs>
			<rect id="SVGID_00000065053822889830188070000002567311016340820124_" y="79.6" width="478.8" height="80.9"/>
		</defs>
		<clipPath id="SVGID_00000113322085006018724510000014886224958735542676_">
			<use xlink:href="#SVGID_00000065053822889830188070000002567311016340820124_"  style="overflow:visible;"/>
		</clipPath>
		<path style="clip-path:url(#SVGID_00000113322085006018724510000014886224958735542676_);fill:#FFFFFF;" d="M165,97l-4.1-10.2
			l-2.3,2.9c-2.6-2.3-10.6-8.9-17.7-9.2c-8.4-0.4-14,7.5-14.5,15.2c-0.1,1.1-0.1,2.1-0.1,3.1c-0.1,4.5-0.2,7.3-4.6,10.6
			c-6.1,4.6-13.3-0.1-14.1-0.7c-1.9-1.3-4.9-3.6-6.6-5l2.2-2.4l-10.8-2.4l3.4,10.4l2.4-2.7c1.7,1.4,4.9,3.8,7,5.3
			c2.7,1.9,6.5,3.4,10.5,3.4c2.9,0,5.8-0.8,8.5-2.8c6-4.5,6.1-9,6.3-13.7c0-0.9,0.1-1.9,0.1-2.9c0.4-4.8,3.7-11.4,10-11.4
			c0.1,0,0.2,0,0.4,0c5.2,0.2,12.3,5.6,15.3,8.3l-2,2.5L165,97z"/>
	</g>
	<g>
		<defs>
			<rect id="SVGID_00000168102719531321214100000002989918511665519497_" y="79.6" width="478.8" height="80.9"/>
		</defs>
		<clipPath id="SVGID_00000127037221123450795810000016956714666567555238_">
			<use xlink:href="#SVGID_00000168102719531321214100000002989918511665519497_"  style="overflow:visible;"/>
		</clipPath>
		<path style="clip-path:url(#SVGID_00000127037221123450795810000016956714666567555238_);fill:#FFFFFF;" d="M213.8,97l-4.1-10.2
			l-2.3,2.9c-2.6-2.3-10.6-8.9-17.7-9.2c-8.4-0.4-14,7.5-14.5,15.2c-0.1,1.1-0.1,2.1-0.1,3.1c-0.1,4.5-0.2,7.3-4.6,10.6
			c-6.1,4.6-13.3-0.1-14.1-0.7c-1.9-1.3-4.9-3.6-6.6-5l2.2-2.4l-10.8-2.4l3.4,10.4l2.4-2.7c1.7,1.4,4.9,3.8,7,5.3
			c2.7,1.9,6.5,3.4,10.5,3.4c2.9,0,5.8-0.8,8.5-2.8c6-4.5,6.1-9,6.3-13.7c0-0.9,0.1-1.9,0.1-2.9c0.4-4.8,3.7-11.4,10-11.4
			c0.1,0,0.2,0,0.4,0c5.2,0.2,12.3,5.6,15.3,8.3l-2,2.5L213.8,97z"/>
	</g>
	<g>
		<defs>
			<rect id="SVGID_00000165193672984570001470000012285636336672733594_" y="79.6" width="478.8" height="80.9"/>
		</defs>
		<clipPath id="SVGID_00000072960414096502606590000015533178472227474339_">
			<use xlink:href="#SVGID_00000165193672984570001470000012285636336672733594_"  style="overflow:visible;"/>
		</clipPath>
		<path style="clip-path:url(#SVGID_00000072960414096502606590000015533178472227474339_);fill:#FFFFFF;" d="M262.6,97l-4.1-10.2
			l-2.3,2.9c-2.6-2.3-10.6-8.9-17.7-9.2c-8.4-0.4-14,7.5-14.5,15.2c-0.1,1.1-0.1,2.1-0.1,3.1c-0.1,4.5-0.2,7.3-4.6,10.6
			c-6.1,4.6-13.3-0.1-14.1-0.7c-1.9-1.3-4.9-3.6-6.6-5l2.2-2.4L190,98.9l3.4,10.4l2.4-2.7c1.7,1.4,4.9,3.8,7,5.3
			c2.7,1.9,6.5,3.4,10.5,3.4c2.9,0,5.8-0.8,8.5-2.8c6-4.5,6.1-9,6.3-13.7c0-0.9,0-1.9,0.1-2.9c0.4-4.8,3.7-11.4,10-11.4
			c0.1,0,0.2,0,0.4,0c5.2,0.2,12.3,5.6,15.3,8.3l-2,2.5L262.6,97z"/>
	</g>
	<g>
		<defs>
			<rect id="SVGID_00000114064734043453435760000009286164004960324502_" y="79.6" width="478.8" height="80.9"/>
		</defs>
		<clipPath id="SVGID_00000077311949117021254440000014472496957563462554_">
			<use xlink:href="#SVGID_00000114064734043453435760000009286164004960324502_"  style="overflow:visible;"/>
		</clipPath>
		<path style="clip-path:url(#SVGID_00000077311949117021254440000014472496957563462554_);fill:#FFFFFF;" d="M308.4,97l-4.1-10.2
			l-2.3,2.9c-2.6-2.3-10.6-8.9-17.7-9.2c-8.4-0.4-14,7.5-14.5,15.2c-0.1,1.1-0.1,2.1-0.1,3.1c-0.1,4.5-0.2,7.3-4.6,10.6
			c-6.1,4.6-13.3-0.1-14.1-0.7c-1.9-1.3-4.9-3.6-6.6-5l2.2-2.4l-10.8-2.4l3.5,10.4l2.4-2.7c1.7,1.4,4.9,3.8,7,5.3
			c2.7,1.9,6.5,3.4,10.5,3.4c2.9,0,5.8-0.8,8.5-2.8c6-4.5,6.1-9,6.3-13.7c0-0.9,0-1.9,0.1-2.9c0.4-4.8,3.7-11.4,10-11.4
			c0.1,0,0.2,0,0.4,0c5.2,0.2,12.3,5.6,15.3,8.3l-2,2.5L308.4,97z"/>
	</g>
	<g>
		<defs>
			<rect id="SVGID_00000060727877458770613440000014783508516863633565_" y="79.6" width="478.8" height="80.9"/>
		</defs>
		<clipPath id="SVGID_00000040574138905755247090000013456130107915485360_">
			<use xlink:href="#SVGID_00000060727877458770613440000014783508516863633565_"  style="overflow:visible;"/>
		</clipPath>
		<path style="clip-path:url(#SVGID_00000040574138905755247090000013456130107915485360_);fill:#FFFFFF;" d="M355.1,97L351,86.8
			l-2.3,2.9c-2.6-2.3-10.6-8.9-17.7-9.2c-8.4-0.4-14,7.5-14.5,15.2c-0.1,1.1-0.1,2.1-0.1,3.1c-0.1,4.5-0.2,7.3-4.6,10.6
			c-6.1,4.6-13.3-0.1-14.1-0.7c-1.9-1.3-4.9-3.6-6.6-5l2.2-2.4l-10.8-2.4l3.5,10.4l2.4-2.7c1.7,1.4,4.9,3.8,7,5.3
			c2.7,1.9,6.5,3.4,10.5,3.4c2.9,0,5.8-0.8,8.5-2.8c6-4.5,6.1-9,6.3-13.7c0-0.9,0-1.9,0.1-2.9c0.4-4.8,3.7-11.4,10-11.4
			c0.1,0,0.2,0,0.4,0c5.2,0.2,12.3,5.6,15.3,8.3l-2,2.5L355.1,97z"/>
	</g>
	<g>
		<defs>
			<rect id="SVGID_00000177475295365497088700000000254340824946356880_" y="79.6" width="478.8" height="80.9"/>
		</defs>
		<clipPath id="SVGID_00000129890968479300636600000004080927225412633739_">
			<use xlink:href="#SVGID_00000177475295365497088700000000254340824946356880_"  style="overflow:visible;"/>
		</clipPath>
		<path style="clip-path:url(#SVGID_00000129890968479300636600000004080927225412633739_);fill:#FFFFFF;" d="M401.9,97l-4.1-10.2
			l-2.3,2.9c-2.6-2.3-10.6-8.9-17.7-9.2c-8.4-0.4-14,7.5-14.5,15.2c-0.1,1.1-0.1,2.1-0.1,3.1c-0.1,4.5-0.2,7.3-4.6,10.6
			c-6.1,4.6-13.3-0.1-14.1-0.7c-1.9-1.3-4.9-3.6-6.6-5l2.2-2.4l-10.8-2.4l3.5,10.4l2.4-2.7c1.7,1.4,4.9,3.8,7,5.3
			c2.7,1.9,6.5,3.4,10.5,3.4c2.9,0,5.8-0.8,8.5-2.8c6-4.5,6.1-9,6.3-13.7c0-0.9,0-1.9,0.1-2.9c0.4-4.8,3.7-11.4,10-11.4
			c0.1,0,0.2,0,0.4,0c5.2,0.2,12.3,5.6,15.3,8.3l-2,2.5L401.9,97z"/>
	</g>
	<g>
		<defs>
			<rect id="SVGID_00000038381051976563512380000011087953675444754105_" y="79.6" width="478.8" height="80.9"/>
		</defs>
		<clipPath id="SVGID_00000099634894906224463890000004516532637359294631_">
			<use xlink:href="#SVGID_00000038381051976563512380000011087953675444754105_"  style="overflow:visible;"/>
		</clipPath>
		<path style="clip-path:url(#SVGID_00000099634894906224463890000004516532637359294631_);fill:#FFFFFF;" d="M-30.2,137l-4.1-10.2
			l-2.3,2.9c-2.6-2.3-10.6-8.9-17.7-9.2c-8.4-0.4-14,7.5-14.5,15.2c-0.1,1.1-0.1,2.1-0.1,3.1c-0.1,4.5-0.2,7.3-4.7,10.6
			c-6.1,4.6-13.3-0.1-14.1-0.7c-1.9-1.3-4.9-3.6-6.6-5l2.2-2.4l-10.8-2.4l3.4,10.4l2.4-2.7c1.7,1.4,4.9,3.8,7,5.3
			c2.7,1.9,6.5,3.4,10.5,3.4c2.8,0,5.8-0.8,8.5-2.8c6-4.5,6.1-9,6.3-13.8c0-0.9,0-1.9,0.1-2.9c0.3-4.8,3.7-11.4,10-11.4
			c0.1,0,0.2,0,0.4,0c5.2,0.2,12.3,5.6,15.3,8.3l-2,2.5L-30.2,137z"/>
	</g>
	<g>
		<defs>
			<rect id="SVGID_00000031913604316639529440000004375894416229283494_" y="79.6" width="478.8" height="80.9"/>
		</defs>
		<clipPath id="SVGID_00000142156372727211761350000004399887117013338786_">
			<use xlink:href="#SVGID_00000031913604316639529440000004375894416229283494_"  style="overflow:visible;"/>
		</clipPath>
		<path style="clip-path:url(#SVGID_00000142156372727211761350000004399887117013338786_);fill:#FFFFFF;" d="M18.6,137l-4.1-10.2
			l-2.3,2.9c-2.6-2.3-10.6-8.9-17.7-9.2c-8.4-0.4-14,7.5-14.5,15.2c-0.1,1.1-0.1,2.1-0.1,3.1c-0.1,4.5-0.2,7.3-4.7,10.6
			c-6.1,4.6-13.3-0.1-14.1-0.7c-1.9-1.3-4.9-3.6-6.6-5l2.2-2.4l-10.8-2.4l3.5,10.4l2.4-2.7c1.7,1.4,4.9,3.8,7,5.3
			c2.7,1.9,6.5,3.4,10.5,3.4c2.8,0,5.8-0.8,8.5-2.8c6-4.5,6.1-9,6.3-13.8c0-0.9,0-1.9,0.1-2.9c0.3-4.8,3.7-11.4,10-11.4
			c0.1,0,0.2,0,0.3,0c5.2,0.2,12.3,5.6,15.3,8.3l-2,2.5L18.6,137z"/>
	</g>
	<g>
		<defs>
			<rect id="SVGID_00000002357761394461101790000015826090482777509514_" y="79.6" width="478.8" height="80.9"/>
		</defs>
		<clipPath id="SVGID_00000115498517713163964880000011275839914527960736_">
			<use xlink:href="#SVGID_00000002357761394461101790000015826090482777509514_"  style="overflow:visible;"/>
		</clipPath>
		<path style="clip-path:url(#SVGID_00000115498517713163964880000011275839914527960736_);fill:#FFFFFF;" d="M67.4,137l-4.1-10.2
			l-2.3,2.9c-2.6-2.3-10.6-8.9-17.7-9.2c-8.4-0.4-14,7.5-14.5,15.2c-0.1,1.1-0.1,2.1-0.1,3.1c-0.1,4.5-0.2,7.3-4.7,10.6
			c-6.1,4.6-13.3-0.1-14.1-0.7c-1.9-1.3-4.8-3.6-6.6-5l2.2-2.4l-10.8-2.4l3.5,10.4l2.4-2.7c1.7,1.4,4.9,3.8,7,5.3
			c2.7,1.9,6.5,3.4,10.5,3.4c2.8,0,5.8-0.8,8.5-2.8c6-4.5,6.1-9,6.3-13.8c0-0.9,0.1-1.9,0.1-2.9c0.3-4.8,3.7-11.4,10-11.4
			c0.1,0,0.2,0,0.3,0c5.2,0.2,12.3,5.6,15.3,8.3l-2,2.5L67.4,137z"/>
	</g>
	<g>
		<defs>
			<rect id="SVGID_00000121272466411321528470000009562529489920982407_" y="79.6" width="478.8" height="80.9"/>
		</defs>
		<clipPath id="SVGID_00000149352911395127865940000005722989927506434723_">
			<use xlink:href="#SVGID_00000121272466411321528470000009562529489920982407_"  style="overflow:visible;"/>
		</clipPath>
		<path style="clip-path:url(#SVGID_00000149352911395127865940000005722989927506434723_);fill:#FFFFFF;" d="M448.8,97l-4.1-10.2
			l-2.3,2.9c-2.6-2.3-10.6-8.9-17.7-9.2c-8.4-0.4-14,7.5-14.5,15.2c-0.1,1.1-0.1,2.1-0.1,3.1c-0.1,4.5-0.2,7.3-4.6,10.6
			c-6.1,4.6-13.3-0.1-14.1-0.7c-1.9-1.3-4.8-3.6-6.6-5l2.2-2.4L376,99l3.4,10.4l2.4-2.7c1.7,1.4,4.9,3.8,7,5.3
			c2.7,1.9,6.5,3.4,10.5,3.4c2.9,0,5.8-0.8,8.5-2.8c6-4.5,6.1-9,6.3-13.7c0-0.9,0.1-1.9,0.1-2.9c0.4-4.8,3.7-11.4,10-11.4
			c0.1,0,0.2,0,0.4,0c5.2,0.2,12.3,5.6,15.3,8.3l-2,2.5L448.8,97z"/>
	</g>
	<g>
		<defs>
			<rect id="SVGID_00000117634896631825884410000006542992983872829835_" y="79.6" width="478.8" height="80.9"/>
		</defs>
		<clipPath id="SVGID_00000003817650963339454780000011797778252486609849_">
			<use xlink:href="#SVGID_00000117634896631825884410000006542992983872829835_"  style="overflow:visible;"/>
		</clipPath>
		<path style="clip-path:url(#SVGID_00000003817650963339454780000011797778252486609849_);fill:#FFFFFF;" d="M497.6,97l-4.1-10.2
			l-2.3,2.9c-2.6-2.3-10.6-8.9-17.7-9.2c-8.4-0.4-14,7.5-14.5,15.2c-0.1,1.1-0.1,2.1-0.1,3.1c-0.1,4.5-0.2,7.3-4.6,10.6
			c-6.1,4.6-13.3-0.1-14.1-0.7c-1.9-1.3-4.9-3.6-6.6-5l2.2-2.4L425,98.9l3.4,10.4l2.4-2.7c1.7,1.4,4.9,3.8,7,5.3
			c2.7,1.9,6.5,3.4,10.5,3.4c2.9,0,5.8-0.8,8.5-2.8c6-4.5,6.1-9,6.3-13.7c0-0.9,0-1.9,0.1-2.9c0.4-4.8,3.7-11.4,10-11.4
			c0.1,0,0.2,0,0.4,0c5.2,0.2,12.3,5.6,15.3,8.3l-2,2.5L497.6,97z"/>
	</g>
	<g>
		<defs>
			<rect id="SVGID_00000182493252074939561600000005952809990742817199_" y="79.6" width="478.8" height="80.9"/>
		</defs>
		<clipPath id="SVGID_00000068667963049053508840000005563643643413447093_">
			<use xlink:href="#SVGID_00000182493252074939561600000005952809990742817199_"  style="overflow:visible;"/>
		</clipPath>
		<path style="clip-path:url(#SVGID_00000068667963049053508840000005563643643413447093_);fill:#FFFFFF;" d="M546.3,97l-4.1-10.2
			l-2.3,2.9c-2.6-2.3-10.6-8.9-17.7-9.2c-8.4-0.4-14,7.5-14.5,15.2c-0.1,1.1-0.1,2.1-0.1,3.1c-0.1,4.5-0.2,7.3-4.6,10.6
			c-6.1,4.6-13.3-0.1-14.1-0.7c-1.9-1.3-4.9-3.6-6.6-5l2.2-2.4l-10.8-2.4l3.4,10.4l2.4-2.7c1.7,1.4,4.9,3.8,7,5.3
			c2.7,1.9,6.5,3.4,10.5,3.4c2.9,0,5.8-0.8,8.5-2.8c6-4.5,6.1-9,6.3-13.7c0-0.9,0.1-1.9,0.1-2.9c0.4-4.8,3.7-11.4,10-11.4
			c0.1,0,0.2,0,0.3,0c5.2,0.2,12.3,5.6,15.3,8.3l-2,2.5L546.3,97z"/>
	</g>
	<g>
		<defs>
			<rect id="SVGID_00000043452660997310975910000009496446661766520482_" y="79.6" width="478.8" height="80.9"/>
		</defs>
		<clipPath id="SVGID_00000125594293135968823170000012105306309494133902_">
			<use xlink:href="#SVGID_00000043452660997310975910000009496446661766520482_"  style="overflow:visible;"/>
		</clipPath>
		<path style="clip-path:url(#SVGID_00000125594293135968823170000012105306309494133902_);fill:#FFFFFF;" d="M448.8,137l-4.1-10.2
			l-2.3,2.9c-2.6-2.3-10.6-8.9-17.7-9.2c-8.4-0.4-14,7.5-14.5,15.2c-0.1,1.1-0.1,2.1-0.1,3.1c-0.1,4.5-0.2,7.3-4.6,10.6
			c-6.1,4.6-13.3-0.1-14.1-0.7c-1.9-1.3-4.8-3.6-6.6-5l2.2-2.4l-11-2.3l3.4,10.4l2.4-2.7c1.7,1.4,4.9,3.8,7,5.3
			c2.7,1.9,6.5,3.4,10.5,3.4c2.9,0,5.8-0.8,8.5-2.8c6-4.5,6.1-9,6.3-13.8c0-0.9,0.1-1.9,0.1-2.9c0.4-4.8,3.7-11.4,10-11.4
			c0.1,0,0.2,0,0.4,0c5.2,0.2,12.3,5.6,15.3,8.3l-2,2.5L448.8,137z"/>
	</g>
	<g>
		<defs>
			<rect id="SVGID_00000081633586105350696380000003995584296136245146_" y="79.6" width="478.8" height="80.9"/>
		</defs>
		<clipPath id="SVGID_00000006672840885251214440000000562404450125639812_">
			<use xlink:href="#SVGID_00000081633586105350696380000003995584296136245146_"  style="overflow:visible;"/>
		</clipPath>
		<path style="clip-path:url(#SVGID_00000006672840885251214440000000562404450125639812_);fill:#FFFFFF;" d="M497.6,137l-4.1-10.2
			l-2.3,2.9c-2.6-2.3-10.6-8.9-17.7-9.2c-8.4-0.4-14,7.5-14.5,15.2c-0.1,1.1-0.1,2.1-0.1,3.1c-0.1,4.5-0.2,7.3-4.6,10.6
			c-6.1,4.6-13.3-0.1-14.1-0.7c-1.9-1.3-4.9-3.6-6.6-5l2.2-2.4l-10.8-2.4l3.4,10.4l2.4-2.7c1.7,1.4,4.9,3.8,7,5.3
			c2.7,1.9,6.5,3.4,10.5,3.4c2.9,0,5.8-0.8,8.5-2.8c6-4.5,6.1-9,6.3-13.8c0-0.9,0-1.9,0.1-2.9c0.4-4.8,3.7-11.4,10-11.4
			c0.1,0,0.2,0,0.4,0c5.2,0.2,12.3,5.6,15.3,8.3l-2,2.5L497.6,137z"/>
	</g>
	<g>
		<defs>
			<rect id="SVGID_00000044855912536694303690000003532628959695490736_" y="79.6" width="478.8" height="80.9"/>
		</defs>
		<clipPath id="SVGID_00000005984778950805568730000003545886823530438041_">
			<use xlink:href="#SVGID_00000044855912536694303690000003532628959695490736_"  style="overflow:visible;"/>
		</clipPath>
		<path style="clip-path:url(#SVGID_00000005984778950805568730000003545886823530438041_);fill:#FFFFFF;" d="M546.3,137l-4.1-10.2
			l-2.3,2.9c-2.6-2.3-10.6-8.9-17.7-9.2c-8.4-0.4-14,7.5-14.5,15.2c-0.1,1.1-0.1,2.1-0.1,3.1c-0.1,4.5-0.2,7.3-4.6,10.6
			c-6.1,4.6-13.3-0.1-14.1-0.7c-1.9-1.3-4.9-3.6-6.6-5l2.2-2.4l-10.8-2.4l3.4,10.4l2.4-2.7c1.7,1.4,4.9,3.8,7,5.3
			c2.7,1.9,6.5,3.4,10.5,3.4c2.9,0,5.8-0.8,8.5-2.8c6-4.5,6.1-9,6.3-13.8c0-0.9,0.1-1.9,0.1-2.9c0.4-4.8,3.7-11.4,10-11.4
			c0.1,0,0.2,0,0.3,0c5.2,0.2,12.3,5.6,15.3,8.3l-2,2.5L546.3,137z"/>
	</g>
	<g>
		<defs>
			<rect id="SVGID_00000145057912067046820370000015700541483640909230_" y="79.6" width="478.8" height="80.9"/>
		</defs>
		<clipPath id="SVGID_00000141454318111235253630000001330375503148067724_">
			<use xlink:href="#SVGID_00000145057912067046820370000015700541483640909230_"  style="overflow:visible;"/>
		</clipPath>
		<path style="clip-path:url(#SVGID_00000141454318111235253630000001330375503148067724_);fill:#FFFFFF;" d="M116.2,137l-4.1-10.2
			l-2.3,2.9c-2.6-2.3-10.6-8.9-17.7-9.2c-8.4-0.4-14,7.5-14.5,15.2c-0.1,1.1-0.1,2.1-0.1,3.1c-0.1,4.5-0.2,7.3-4.6,10.6
			c-6.1,4.6-13.3-0.1-14.1-0.7c-1.9-1.3-4.8-3.6-6.6-5l2.2-2.4l-10.8-2.4l3.4,10.4l2.4-2.7c1.7,1.4,4.9,3.8,7,5.3
			c2.7,1.9,6.5,3.4,10.5,3.4c2.9,0,5.8-0.8,8.5-2.8c6-4.5,6.1-9,6.3-13.8c0-0.9,0.1-1.9,0.1-2.9c0.4-4.8,3.7-11.4,10-11.4
			c0.1,0,0.2,0,0.4,0c5.2,0.2,12.3,5.6,15.3,8.3l-2,2.5L116.2,137z"/>
	</g>
	<g>
		<defs>
			<rect id="SVGID_00000022537655635128454680000001391002001172742063_" y="79.6" width="478.8" height="80.9"/>
		</defs>
		<clipPath id="SVGID_00000138560004967298307520000006162017046539791246_">
			<use xlink:href="#SVGID_00000022537655635128454680000001391002001172742063_"  style="overflow:visible;"/>
		</clipPath>
		<path style="clip-path:url(#SVGID_00000138560004967298307520000006162017046539791246_);fill:#FFFFFF;" d="M165,137l-4.1-10.2
			l-2.3,2.9c-2.6-2.3-10.6-8.9-17.7-9.2c-8.4-0.4-14,7.5-14.5,15.2c-0.1,1.1-0.1,2.1-0.1,3.1c-0.1,4.5-0.2,7.3-4.6,10.6
			c-6.1,4.6-13.3-0.1-14.1-0.7c-1.9-1.3-4.9-3.6-6.6-5l2.2-2.4l-10.8-2.4l3.4,10.4l2.4-2.7c1.7,1.4,4.9,3.8,7,5.3
			c2.7,1.9,6.5,3.4,10.5,3.4c2.9,0,5.8-0.8,8.5-2.8c6-4.5,6.1-9,6.3-13.8c0-0.9,0.1-1.9,0.1-2.9c0.4-4.8,3.7-11.4,10-11.4
			c0.1,0,0.2,0,0.4,0c5.2,0.2,12.3,5.6,15.3,8.3l-2,2.5L165,137z"/>
	</g>
	<g>
		<defs>
			<rect id="SVGID_00000131365157927971738610000012940476901753052594_" y="79.6" width="478.8" height="80.9"/>
		</defs>
		<clipPath id="SVGID_00000176030862459577995330000008389333954414776209_">
			<use xlink:href="#SVGID_00000131365157927971738610000012940476901753052594_"  style="overflow:visible;"/>
		</clipPath>
		<path style="clip-path:url(#SVGID_00000176030862459577995330000008389333954414776209_);fill:#FFFFFF;" d="M213.8,137l-4.1-10.2
			l-2.3,2.9c-2.6-2.3-10.6-8.9-17.7-9.2c-8.4-0.4-14,7.5-14.5,15.2c-0.1,1.1-0.1,2.1-0.1,3.1c-0.1,4.5-0.2,7.3-4.6,10.6
			c-6.1,4.6-13.3-0.1-14.1-0.7c-1.9-1.3-4.9-3.6-6.6-5l2.2-2.4l-10.8-2.4l3.4,10.4l2.4-2.7c1.7,1.4,4.9,3.8,7,5.3
			c2.7,1.9,6.5,3.4,10.5,3.4c2.9,0,5.8-0.8,8.5-2.8c6-4.5,6.1-9,6.3-13.8c0-0.9,0.1-1.9,0.1-2.9c0.4-4.8,3.7-11.4,10-11.4
			c0.1,0,0.2,0,0.4,0c5.2,0.2,12.3,5.6,15.3,8.3l-2,2.5L213.8,137z"/>
	</g>
	<g>
		<defs>
			<rect id="SVGID_00000046339985340990059070000017010871933809827497_" y="79.6" width="478.8" height="80.9"/>
		</defs>
		<clipPath id="SVGID_00000018947606166885532110000017350950489474392507_">
			<use xlink:href="#SVGID_00000046339985340990059070000017010871933809827497_"  style="overflow:visible;"/>
		</clipPath>
		<path style="clip-path:url(#SVGID_00000018947606166885532110000017350950489474392507_);fill:#FFFFFF;" d="M262.6,137l-4.1-10.2
			l-2.3,2.9c-2.6-2.3-10.6-8.9-17.7-9.2c-8.4-0.4-14,7.5-14.5,15.2c-0.1,1.1-0.1,2.1-0.1,3.1c-0.1,4.5-0.2,7.3-4.6,10.6
			c-6.1,4.6-13.3-0.1-14.1-0.7c-1.9-1.3-4.9-3.6-6.6-5l2.2-2.4l-10.8-2.4l3.4,10.4l2.4-2.7c1.7,1.4,4.9,3.8,7,5.3
			c2.7,1.9,6.5,3.4,10.5,3.4c2.9,0,5.8-0.8,8.5-2.8c6-4.5,6.1-9,6.3-13.8c0-0.9,0-1.9,0.1-2.9c0.4-4.8,3.7-11.4,10-11.4
			c0.1,0,0.2,0,0.4,0c5.2,0.2,12.3,5.6,15.3,8.3l-2,2.5L262.6,137z"/>
	</g>
	<g>
		<defs>
			<rect id="SVGID_00000129172904449463735700000015980186407773616790_" y="79.6" width="478.8" height="80.9"/>
		</defs>
		<clipPath id="SVGID_00000007417741273362716810000014482599256688662401_">
			<use xlink:href="#SVGID_00000129172904449463735700000015980186407773616790_"  style="overflow:visible;"/>
		</clipPath>
		<path style="clip-path:url(#SVGID_00000007417741273362716810000014482599256688662401_);fill:#FFFFFF;" d="M308.4,137l-4.1-10.2
			l-2.3,2.9c-2.6-2.3-10.6-8.9-17.7-9.2c-8.4-0.4-14,7.5-14.5,15.2c-0.1,1.1-0.1,2.1-0.1,3.1c-0.1,4.5-0.2,7.3-4.6,10.6
			c-6.1,4.6-13.3-0.1-14.1-0.7c-1.9-1.3-4.9-3.6-6.6-5l2.2-2.4l-10.8-2.4l3.5,10.4l2.4-2.7c1.7,1.4,4.9,3.8,7,5.3
			c2.7,1.9,6.5,3.4,10.5,3.4c2.9,0,5.8-0.8,8.5-2.8c6-4.5,6.1-9,6.3-13.8c0-0.9,0-1.9,0.1-2.9c0.4-4.8,3.7-11.4,10-11.4
			c0.1,0,0.2,0,0.4,0c5.2,0.2,12.3,5.6,15.3,8.3l-2,2.5L308.4,137z"/>
	</g>
	<g>
		<defs>
			<rect id="SVGID_00000122690034186116338070000004952099449280962723_" y="79.6" width="478.8" height="80.9"/>
		</defs>
		<clipPath id="SVGID_00000155856778768498200240000015089745652616083121_">
			<use xlink:href="#SVGID_00000122690034186116338070000004952099449280962723_"  style="overflow:visible;"/>
		</clipPath>
		<path style="clip-path:url(#SVGID_00000155856778768498200240000015089745652616083121_);fill:#FFFFFF;" d="M355.1,137l-4.1-10.2
			l-2.3,2.9c-2.6-2.3-10.6-8.9-17.7-9.2c-8.4-0.4-14,7.5-14.5,15.2c-0.1,1.1-0.1,2.1-0.1,3.1c-0.1,4.5-0.2,7.3-4.6,10.6
			c-6.1,4.6-13.3-0.1-14.1-0.7c-1.9-1.3-4.9-3.6-6.6-5l2.2-2.4l-10.8-2.4l3.5,10.4l2.4-2.7c1.7,1.4,4.9,3.8,7,5.3
			c2.7,1.9,6.5,3.4,10.5,3.4c2.9,0,5.8-0.8,8.5-2.8c6-4.5,6.1-9,6.3-13.8c0-0.9,0-1.9,0.1-2.9c0.4-4.8,3.7-11.4,10-11.4
			c0.1,0,0.2,0,0.4,0c5.2,0.2,12.3,5.6,15.3,8.3l-2,2.5L355.1,137z"/>
	</g>
	<g>
		<defs>
			<rect id="SVGID_00000126292107405991357620000005473080491929059977_" y="79.6" width="478.8" height="80.9"/>
		</defs>
		<clipPath id="SVGID_00000087371888754500621380000016481521780148272261_">
			<use xlink:href="#SVGID_00000126292107405991357620000005473080491929059977_"  style="overflow:visible;"/>
		</clipPath>
		<path style="clip-path:url(#SVGID_00000087371888754500621380000016481521780148272261_);fill:#FFFFFF;" d="M401.9,137l-4.1-10.2
			l-2.3,2.9c-2.6-2.3-10.6-8.9-17.7-9.2c-8.4-0.4-14,7.5-14.5,15.2c-0.1,1.1-0.1,2.1-0.1,3.1c-0.1,4.5-0.2,7.3-4.6,10.6
			c-6.1,4.6-13.3-0.1-14.1-0.7c-1.9-1.3-4.9-3.6-6.6-5l2.2-2.4l-10.8-2.4l3.5,10.4l2.4-2.7c1.7,1.4,4.9,3.8,7,5.3
			c2.7,1.9,6.5,3.4,10.5,3.4c2.9,0,5.8-0.8,8.5-2.8c6-4.5,6.1-9,6.3-13.8c0-0.9,0-1.9,0.1-2.9c0.4-4.8,3.7-11.4,10-11.4
			c0.1,0,0.2,0,0.4,0c5.2,0.2,12.3,5.6,15.3,8.3l-2,2.5L401.9,137z"/>
	</g>
</g>
</svg>
